<?xml version="1.0" encoding="UTF-8"?>
<svg id="Mobile" xmlns="http://www.w3.org/2000/svg" viewBox="0 0 500 500">
  <defs>
    <style>
      .cls-1 {
        fill: #061c34;
      }
    </style>
  </defs>
  <path class="cls-1" d="m446.32,128.92c-.01-6-.75-12.17-2.29-17.95-8.35-31.43-35.35-52.13-68.16-52.25-41.89-.16-83.79-.04-125.68-.04-41.76,0-83.51-.1-125.27.02-40.92.11-71.33,30.67-71.34,71.46-.01,79.79-.02,159.59,0,239.38.01,41.01,30.54,71.73,71.54,71.78,83.51.09,167.03.08,250.54,0,39.6-.04,70.67-30.98,70.72-70.53.11-80.62.08-161.24-.06-241.86Zm-187.54,201.01c-9.09,0-18.19-.11-27.28.06-3.45.06-5.22-1.21-6.29-4.51-3.44-10.61-7.27-21.1-10.7-31.71-1.07-3.32-2.76-4.5-6.25-4.41-8.54.24-17.08.08-25.63.08-8.27,0-16.54.18-24.8-.08-3.64-.11-5.41,1-6.48,4.58-3.11,10.42-6.71,20.7-9.88,31.11-1.06,3.49-2.93,4.84-6.54,4.77-8.26-.18-16.53-.04-24.8-.09-5.43-.03-5.85-.61-4.04-5.78,14.59-41.74,29.2-83.47,43.79-125.21,1.64-4.68,3.46-9.31,4.78-14.08,1.87-6.73,3.49-13.54,4.93-20.38.54-2.57,1.35-3.88,4.2-3.86,12.54.1,25.08.14,37.61-.01,3.55-.04,4.29,2.27,5.18,4.79,8.42,23.61,16.85,47.22,25.29,70.83,10.42,29.19,20.86,58.37,31.28,87.56,2.13,5.98,1.86,6.36-4.38,6.36Zm129.77-60h-80.85c1.1,10.68,5.55,18.56,14.66,23.4,10.14,5.39,21.16,5.85,32.25,4.72,7.36-.75,14.66-2.16,22.41-3.34.09,1.5.26,2.97.27,4.44.03,4.82.01,9.65.01,14.47,0,9.38.04,9.53-8.88,11.97-15.32,4.2-30.87,5.69-46.65,3.03-35.52-6-48.95-33.08-50.57-57.41-.81-12.17.95-24.21,4.79-35.86,7.7-23.36,25.11-37.39,49.62-39.07,7.33-.5,14.96-.01,22.16,1.45,18.88,3.83,31.3,15.42,37.28,33.73,4.04,12.39,3.96,25.18,3.51,38.47Z"/>
  <path class="cls-1" d="m181.98,193.41c-6.31,20.92-12.62,41.84-19.01,63.03h39.81c-6.67-21.44-13.14-42.24-19.61-63.05-.4,0-.8.01-1.2.02Z"/>
  <path class="cls-1" d="m342.93,225.24c-8.29-4.57-16.72-4.17-24.64.94-6.75,4.35-10.19,10.76-10.69,19.19h47.63c-.68-9.23-4.65-15.91-12.3-20.13Z"/>
</svg>