<?xml version="1.0" encoding="UTF-8"?>
<svg id="Mobile" xmlns="http://www.w3.org/2000/svg" viewBox="0 0 500 500">
  <defs>
    <style>
      .cls-1 {
        fill: #061c34;
      }
    </style>
  </defs>
  <path class="cls-1" d="m323.51,38.14h-147.03c-76.33,0-138.35,61.82-138.35,138.35v147.02c0,76.34,62.02,138.35,138.35,138.35h147.03c76.33,0,138.35-62.01,138.35-138.35v-147.02c0-76.53-62.02-138.35-138.35-138.35Zm93.77,319.32c0,14.97-9.74,24.69-24.75,24.74-15.49.06-30.98.02-46.47.01-1.37,0-2.74-.13-4.83-.23v-128.71c-2.2,1.53-3.69,2.48-5.1,3.54-27.36,20.53-54.75,41.04-82.01,61.7-2.97,2.24-4.88,2.42-7.96.09-27.91-21.09-55.95-41.99-83.96-62.95-.82-.61-1.72-1.12-3.28-2.13v128.57c-1.98.12-3.47.29-4.95.29-15.65.02-31.3.04-46.94,0-14.51-.03-24.31-9.7-24.31-24.08-.03-63.97-.06-127.93.02-191.9.02-14.08,6.31-24.77,18.93-31.16,12.46-6.3,24.68-5.1,35.84,3.22,35.74,26.64,71.37,53.43,107.03,80.19,5.58,4.19,5.48,4.17,11.24-.14,35.16-26.39,70.46-52.6,105.5-79.16,22.25-16.87,48.45-3.74,54.13,15.74,1.11,3.81,1.8,7.9,1.8,11.86.11,63.5.09,127.01.07,190.51Z"/>
</svg>