<?xml version="1.0" encoding="UTF-8"?>
<svg id="Mobile" xmlns="http://www.w3.org/2000/svg" viewBox="0 0 500 500">
  <defs>
    <style>
      .cls-1 {
        fill: #061c34;
      }
    </style>
  </defs>
  <path class="cls-1" d="m446.54,127.81c-.08-38.68-31.62-69.81-70.28-69.82-84.21-.03-168.43-.03-252.64,0-38.44.01-70.07,31.05-70.17,69.49-.21,81.6-.09,163.19-.03,244.79,0,11.05,2.48,21.67,7.81,31.39,13.72,25.02,34.99,38.02,63.52,38.22,41.76.28,83.52.07,125.29.07,41.49,0,82.97,0,124.46,0,.41,0,.83,0,1.24,0,39.64-.48,70.72-31,70.8-70.18.18-81.32.17-162.64,0-243.96Zm-145.82,215.31c-10.19.02-20.39-.1-30.58.07-3.12.05-4.65-.93-5.62-3.98-3.57-11.29-7.55-22.46-11.08-33.76-1.06-3.4-2.77-4.4-6.22-4.34-17.08.31-34.16.47-51.24.44-3.76,0-5.6,1.12-6.73,4.86-3.31,10.94-7.14,21.72-10.58,32.62-.92,2.92-2.28,4.21-5.52,4.15-9.64-.19-19.29-.06-28.93-.07-1.21,0-2.43-.16-4.23-.29.55-1.89.9-3.43,1.44-4.92,16.98-47.17,34.07-94.3,50.84-141.55,2.55-7.19,3.81-14.88,5.21-22.43.53-2.88,1.4-4.05,4.35-4.03,12.81.09,25.63.15,38.43-.03,3.5-.05,4.36,1.99,5.29,4.58,14.24,39.96,28.51,79.91,42.78,119.86,5.14,14.4,10.29,28.79,15.43,43.19.54,1.53,1.01,3.08,1.76,5.38-2.1.11-3.44.24-4.79.25Zm57.03-12.36q0,12.37-12.3,12.37c-6.33,0-12.67-.16-19,.06-3.5.12-4.45-1.23-4.43-4.57.12-20.52.06-41.04.06-61.55,0-20.11.08-40.21-.07-60.31-.03-3.7.97-5.12,4.86-5,8.53.25,17.08.31,25.61-.02,4.29-.16,5.36,1.37,5.35,5.42-.12,37.87-.07,75.74-.07,113.61Zm-17.74-132.96c-11.4.04-20.44-8.92-20.55-20.34-.11-11.46,9.23-20.84,20.66-20.73,11.07.1,20.26,9.21,20.41,20.23.16,11.53-8.98,20.81-20.52,20.85Z"/>
  <path class="cls-1" d="m220.14,202.24c-6.34,21.59-12.68,43.18-19.15,65.21h40.52c-6.84-22.2-13.47-43.7-20.1-65.21-.42,0-.84,0-1.27,0Z"/>
</svg>