<?xml version="1.0" encoding="UTF-8"?>
<svg id="Mobile" xmlns="http://www.w3.org/2000/svg" viewBox="0 0 500 500">
  <defs>
    <style>
      .cls-1 {
        fill: #061c34;
      }
    </style>
  </defs>
  <path class="cls-1" d="m336.01,214.62c-8.14,12.94-16.33,25.85-24.49,38.78-5.6,8.86-11.19,17.72-16.79,26.57-4.36,6.87-10.63,10.35-17.7,10.57-6.35-.08-10.92-2.06-15.11-5.23-10.2-7.72-20.45-15.37-30.69-23.04-5.17-3.87-8.43-3.79-13.5.07-14.31,10.9-28.65,21.76-42.99,32.63-3.38,2.56-6.7,2.55-9.42.05-2.64-2.43-2.91-5.79-.63-9.39,13.75-21.79,27.48-43.6,41.3-65.34,7.26-11.43,20.88-14.02,31.81-6.02,10.55,7.73,20.96,15.66,31.42,23.51,5.42,4.07,8.57,4.07,13.99-.04,14.18-10.75,28.35-21.5,42.54-32.23,3.42-2.59,6.28-2.83,8.98-.86,3.19,2.34,3.72,6.1,1.28,9.97Z"/>
  <path class="cls-1" d="m323.47,38.13h-146.94c-76.43,0-138.39,61.96-138.39,138.4v146.94c0,76.43,61.96,138.39,138.39,138.39h146.94c76.44,0,138.4-61.96,138.4-138.39v-146.94c0-76.44-61.96-138.4-138.4-138.4Zm54.58,272.23c-18.26,35.07-47.35,57.25-84.96,68.39-27.37,8.11-54.99,8.19-82.58.85-3.86-1.03-7.36-.66-10.91.91-8.52,3.78-17.06,7.51-25.6,11.23-9.5,4.13-17.25-.93-17.55-11.32-.24-8.27-.61-16.53-.99-24.79-.14-3.05-1.7-5.4-3.94-7.43-22.34-20.25-36.47-45.22-42.02-74.81-1.87-9.97-2.35-20.2-3-26.06,1.96-49.72,20.14-86.63,57.08-113.55,20.31-14.8,43.36-22.94,68.28-25.8,25.08-2.88,49.67-.58,73.15,8.79,47.3,18.89,76.52,53.32,85.9,103.59,5.84,31.27,1.91,61.64-12.86,90Z"/>
</svg>