<?xml version="1.0" encoding="UTF-8"?>
<svg id="Mobile" xmlns="http://www.w3.org/2000/svg" viewBox="0 0 500 500">
  <defs>
    <style>
      .cls-1 {
        fill: #061c34;
      }
    </style>
  </defs>
  <path class="cls-1" d="m446.41,128.96c0-39.77-31-70.83-70.78-70.84-83.8-.03-167.59-.02-251.39,0-39.32.01-70.55,30.92-70.6,70.2-.11,81.18-.08,162.35.06,243.53.01,5.86.77,11.88,2.25,17.54,8.29,31.73,35.66,52.4,69.29,52.47,41.62.09,83.24.02,124.87.02,40.38,0,80.76,0,121.15,0,.41,0,.83.02,1.24,0,4.54-.22,9.14-.05,13.61-.73,35.49-5.38,60.28-34.33,60.29-70.31.02-80.63.01-161.25,0-241.88Zm-231.6,144.38c-9.91,1.23-20.08.64-30.13.49-4.01-.06-5.21,1.22-5.16,5.16.18,14.6-.03,29.2.14,43.8.04,3.67-1.21,4.77-4.77,4.69-8.67-.2-17.35-.05-26.03-.07-5.53-.01-5.55-.04-5.55-5.45,0-26.72,0-53.44,0-80.17,0-26.72,0-53.44,0-80.17,0-5.46.03-5.49,5.46-5.49,19.42-.01,38.84-.09,58.27.01,31.74.16,57.29,23.71,59.3,54.55,2.08,31.77-19.72,58.69-51.52,62.64Zm147.87,47.45c-10.89,8.27-23.6,10.91-36.94,11.24-12.98.31-25.47-2.14-37.56-6.86-2.8-1.1-4.12-2.54-4.01-5.74.25-7.16.1-14.33.15-21.49,0-1.33.18-2.66.31-4.64,5.11,1.42,9.71,2.67,14.3,3.97,11.06,3.14,22.22,5.49,33.82,3.92,1.35-.18,2.73-.45,4-.94,6.15-2.34,7.79-7.92,3.39-12.74-2.16-2.37-5.02-4.38-7.94-5.73-5.74-2.65-11.9-4.42-17.61-7.13-5.44-2.58-10.98-5.33-15.71-8.99-23.45-18.17-19.09-53.98,8.11-65.85,17.98-7.85,36.56-6.88,55.06-1.62,9.89,2.81,9.87,2.94,9.91,13.02.03,7.28,0,14.56,0,22.58-3.24-1.29-5.85-2.36-8.47-3.38-9.29-3.63-18.76-6.62-28.88-6.16-3.11.14-6.37.69-9.23,1.86-5.68,2.33-6.79,8.56-2.3,12.77,2.16,2.02,4.9,3.59,7.63,4.8,5.16,2.27,10.55,4.03,15.77,6.18,9.28,3.83,17.71,9.01,24.17,16.86,13.48,16.41,9.94,40.45-7.98,54.07Z"/>
  <path class="cls-1" d="m202.77,187.53c-6.19-.15-12.39.14-18.57-.11-3.74-.15-4.73,1.39-4.65,4.86.18,7.56.06,15.14.06,22.7,0,7.84.08,15.69-.03,23.53-.04,3,1.06,4.12,4.12,4.03,6.19-.18,12.38-.02,18.58-.05,16.03-.09,28.16-11.78,28.28-27.2.12-15.46-11.75-27.38-27.77-27.76Z"/>
</svg>