<?xml version="1.0" encoding="utf-8"?>
<!-- Generator: Adobe Illustrator 27.2.0, SVG Export Plug-In . SVG Version: 6.00 Build 0)  -->
<svg version="1.1" id="Mobile" xmlns="http://www.w3.org/2000/svg" xmlns:xlink="http://www.w3.org/1999/xlink" x="0px" y="0px"
	 viewBox="0 0 500 500" style="enable-background:new 0 0 500 500;" xml:space="preserve">
<g>
	<path d="M174.9,349.6h18.7l3.5,8.6h13L190.5,314h-12.3l-19.5,44.2h12.7L174.9,349.6z M184.3,326.2l5.7,14.1h-11.4L184.3,326.2z"/>
	<path d="M242.2,358.1h13.4l-9.5-13.9c5.5-2.7,8.6-7.4,8.6-13.9c0-10.1-7.6-16.3-19.6-16.3h-20.2v44.2h12.5v-11.7h6.8L242.2,358.1z
		 M227.4,323.8h6.9c5.2,0,7.8,2.4,7.8,6.5c0,4-2.6,6.4-7.8,6.4h-6.9V323.8z"/>
	<polygon points="257.1,323.9 270.7,323.9 270.7,358.1 283.2,358.1 283.2,323.9 296.7,323.9 296.7,314 257.1,314 	"/>
	<rect x="301.3" y="314" width="12.5" height="44.2"/>
	<polygon points="354.5,358.1 364.8,358.1 364.8,314 352.5,314 352.5,337.5 333,314 322.7,314 322.7,358.1 335,358.1 335,334.6 	"/>
	<path d="M396.6,323.4c4.2,0,7.7,1.6,10.7,4.9l8-7.2c-4.4-5.2-11-8.1-19.3-8.1c-14.3,0-24.6,9.5-24.6,23s10.3,23,24.4,23
		c6.4,0,13.4-2,18.6-5.6v-18.3h-11v12.1c-2.2,1-4.4,1.5-6.8,1.5c-7.4,0-12.5-5.2-12.5-12.6C383.9,328.4,389,323.4,396.6,323.4z"/>
	<rect x="232.8" y="373.1" width="25.6" height="76.1"/>
	<polygon points="268.5,373.1 268.5,449.2 293.5,449.2 293.5,414.7 322.4,449.2 343.5,449.2 343.5,373.1 318.5,373.1 318.5,407.7 
		289.6,373.1 	"/>
	<polygon points="350.1,393 372.4,393 372.4,393 372.4,449.2 398.1,449.2 398.1,393 420.3,393 420.3,373.1 350.1,373.1 	"/>
	<path d="M190.1,373.1c-18.7,0-33.8,15.1-33.8,33.8c0,26.6,30.5,67.9,33.8,67.9s33.8-41.2,33.8-67.9
		C223.9,388.3,208.7,373.1,190.1,373.1z M190.1,423.3c-9.1,0-16.4-7.3-16.4-16.4s7.3-16.4,16.4-16.4s16.4,7.3,16.4,16.4
		S199.2,423.3,190.1,423.3z"/>
	<rect x="230.5" y="456" width="187.5" height="18.8"/>
	<path d="M122.9,373.2L122.9,373.2l-42.4,0v101.6h22.2v-24.1h20.2c15.7,0,28.4-12.7,28.4-28.4v-20.7
		C151.3,385.9,138.6,373.2,122.9,373.2z M128.3,417.7L128.3,417.7c0,5.5-4.5,9.9-10,9.9h-14.8v-31.5h14.8c5.5,0,10,4.5,10,9.9V417.7
		z"/>
	<path d="M39.9,249.5L39.9,249.5c4.3,0.5,8.5-1.3,12.1-3.4c3.9-2.3,7.5-4.9,10.9-7.8c6.8-5.7,12.9-12.2,18.5-19.1
		c6.2-7.5,12-15.4,17.7-23.2c9.9-13.6,19.5-27.5,28.9-41.5c9.6-7.4,19.3-14.7,29.2-21.8c14.8-10.6,29.8-20.9,45-30.8
		c1.9-1.3,3.9-2.5,5.8-3.8c0.8-0.5,1.6-1.1,2.5-1.6c0,0,0,0,0,0c0.2-0.1,0.3-0.2,0.5-0.2c0.1-0.1,0.9-0.4,0.8-0.4
		c0.3-0.1,0.7-0.2,0.8-0.2c0.2,0,0.7-0.1,0.5-0.1c0,0,0.2,0,0.2,0c0.1,0,0.3,0,0.6,0.3c1.2,1.2,0.1,3.4-0.6,4.7
		c-4.5,8.2-9.5,16.1-14.9,23.7c-2.6,3.7-5.4,7.3-8.2,10.8c-0.9,1.2-0.8,2.5,0.8,2.9c1.6,0.5,3.9-0.1,5-1.3
		c8.4-9.2,17.3-17.9,26.5-26.2c-0.9,4.9-1.8,9.8-2.7,14.8c-0.2,1.3,1.3,1.8,2.3,1.9c1.4,0.1,3.2-0.4,4.2-1.5
		c9.2-9.8,17.8-20.2,25.8-31.1c-1.9,5.9-3.5,11.8-4.8,17.9c-0.8,3.8-1.5,7.5-2.1,11.3c-0.4,2.6-0.5,5.3,0,8c0.4,2.4,1.3,5,3.1,6.7
		c2.4,2.2,5.7,2.6,8.8,1.9c4-1,7-3.9,10.1-6.4c3-2.5,6.1-5,9.2-7.5c1.7-1.3,3.3-2.6,5-3.9c0.3-0.2,2.8-2.4,3.9-3.1
		c0.2,0.2,0.4,0.4,0.2,0c0.2,0.4,0.7,0.7,1,1.1c0.6,1.1,0.9,2.4,1,3.6c0.2,3.5-0.6,7.1,1.8,10.1c2,2.5,5.4,3.1,8.4,3
		c3.9-0.2,7.5-1.8,10.8-3.7c2.5-1.5,5.7-4,8.6-2.7c1.7,0.8,3.1,2.1,4.5,3.2c1.5,1.1,3.1,1.9,5,2.2c3.6,0.6,8.6-0.4,10.3-4.1
		c1.5-3.4-5.6-2.9-6.7-0.5c0,0.1,0,0.1-0.1,0.1c-0.9-0.2-2-0.8-3-1.5c-2.7-2-5.2-4-8.7-4.4c-3.8-0.4-7.4,1-10.7,2.7
		c-1.6,0.9-3.1,1.9-4.8,2.8c-0.8,0.5-2,0.9-3.2,1.2c-0.5,0.1-1.5,0.2-1.9,0.1c-1.1-0.2-2.1-1-2.7-2c-1.4-2.7-0.4-6-0.8-8.9
		c-0.3-2.7-1.7-5.4-4.4-6.5c-3.9-1.6-7.9,0.5-10.9,2.8c-6.2,4.8-12.4,9.7-18.4,14.8c-1.1,1-2.3,2-3.5,2.8c0,0-1.2,0.6-0.7,0.4
		c-0.6,0.1-0.5,0.1-1.1-0.2c-0.3-0.1-1.1-0.9-1.6-1.6c-0.6-0.8-0.9-1.8-1.2-2.8c-1.5-5.6,0.1-11.8,1.2-17.3
		c1.4-6.9,3.2-13.8,5.3-20.5c2.8-8.6,6.2-17,10.2-25.2c0.1-0.1,0.2-0.2,0.2-0.4c3.5-5.8,6.8-11.7,9.9-17.7c0.8-1.5-0.7-2.4-2-2.5
		c-1.7-0.1-3.7,0.6-4.6,2c-3.7,5.8-7,11.7-10,17.8c-8.7,14.4-18.4,28.2-29.1,41.2c-1.7,2-3.3,4-5,5.9c0.8-4.1,1.5-8.3,2.3-12.4
		c0.2-1.3-1.3-1.8-2.3-1.9c-1.5-0.1-3,0.5-4.2,1.5c-3.6,3-7.1,6.1-10.5,9.3c2.3-3.7,4.8-7.5,6.6-11.5c1-2.1,1.5-4.4,0.2-6.4
		c-1-1.5-2.8-2.1-4.5-2.3c-4.2-0.5-8.2,1.4-11.6,3.6c-4,2.6-8.1,5.2-12.1,7.9c-8,5.3-15.9,10.6-23.7,16
		c-10.9,7.6-21.7,15.3-32.3,23.3c11-16.3,21.9-32.6,32.8-48.9c11.8-17.5,23.6-35.1,35.4-52.6c2.9-4.2,5.7-8.5,8.5-12.7
		c0.7-1.1-0.2-2.1-1.2-2.4c-1.4-0.4-3.2,0-4.4,0.8c-27.8,19.2-57.7,35.1-89.1,47.6c-8.8,3.5-17.6,6.7-26.6,9.5c-1.2,0.4-3.4,1.4-3,3
		c0.4,1.5,3,1.5,4.1,1.1c33-10.7,64.8-25,94.5-42.8c4.2-2.5,8.4-5.1,12.6-7.8c-9.1,13.5-18.2,27.1-27.3,40.6
		c-11.2,16.7-22.4,33.3-33.6,50c-5.7,8.5-11.4,17.1-17.2,25.6c-15,11.7-29.6,23.8-43.6,36.5c-7.1,6.4-14,12.9-20.8,19.6
		c-3.4,3.3-6.7,6.7-10,10c-3.1,3.2-6.2,6.5-8.7,10.1C35.3,234.6,29.2,248.1,39.9,249.5z M330.6,132c0,0-0.1,0-0.2,0
		C330.5,131.9,330.8,132,330.6,132z M210.5,96.6C210.8,96.4,210.6,96.5,210.5,96.6L210.5,96.6z M41,241.1L41,241.1
		c0.8-8.2,6.9-14.6,12.3-20.2c6.4-6.6,12.9-13,19.6-19.3c12.9-12.2,26.2-23.8,39.9-35c-2.2,3.2-4.5,6.5-6.7,9.7
		c-10.7,15.3-21.4,30.7-33.5,44.9c-5.5,6.4-11.3,12.5-18.1,17.6c-1.6,1.2-3.3,2.4-5.1,3.5c-0.8,0.5-1.7,1.1-2.5,1.5
		c-0.2,0.1-0.6,0.3-0.8,0.4c-0.1,0.1-0.8,0.3-0.8,0.4c-0.3,0.1-0.7,0.2-1,0.3c-0.2,0-0.2,0.1-0.3,0.1c0,0-0.1,0-0.3,0
		c-0.3,0-0.8,0-1.1-0.1C41.2,244.3,40.9,242.5,41,241.1z"/>
	<path d="M110.2,229.8c8.6-11.9,17.6-23.6,26.9-35v0c9.3-11.4,18.9-22.5,28.8-33.4c1.2-1.3,2.5-2.7,3.7-4c1.1-1.2-0.9-1.4-1.7-1.3
		c-1.5,0.1-3.6,0.6-4.7,1.7c-10,10.8-19.8,21.9-29.2,33.3c-9.4,11.4-18.5,23.1-27.3,35.1C98,238,89.6,250.2,81.5,262.6
		c-8.1,12.4-15.8,25.1-23.1,38c-7.3,12.8-14.2,25.9-20.8,39.1c-0.8,1.6-1.6,3.3-2.4,4.9c-0.6,1.2,2.4,0.9,2.9,0.8
		c1.2-0.2,3.5-0.7,4.1-2c6.5-13.3,13.3-26.4,20.5-39.2c7.2-12.8,14.8-25.5,22.7-37.9C93.3,253.9,101.6,241.7,110.2,229.8z"/>
	<path d="M465.8,198.5L465.8,198.5c-0.5-0.5-1.3-0.5-1.9-0.6c-8.4-0.5-16.9-0.8-25.3-0.7c-2.8,0-5.7,0.1-8.5,0.2
		c0.3-0.8,0.5-1.6,0.8-2.4c2.6-7.7,4.9-15.5,6.9-23.4c0.8-3-6.1-2-6.9,0.1c-3.3,8.5-6,17.2-8.1,26c-3.4,0.2-6.7,0.4-10.1,0.7
		c-4.7,0.4-9.4,0.9-14.1,1.5c-0.9,0.1-1.9,0.4-2.7,0.9c-0.4,0.3-1.3,0.9-1.4,1.4c-0.2,1.5,2.1,1.6,3,1.4c4.2-0.5,8.3-1,12.5-1.4
		c2.1-0.2,4.2-0.4,6.3-0.5c1-0.1,2-0.1,2.9-0.2c0.1,0,0.1,0,0.2,0c0.3,0,0.5,0,0.8,0c0.5,0,1,0,1.5-0.1c-6.1,17-13.7,33.5-22.6,49.2
		c-2.6,4.5-5.3,9-8,13.4c0-1.3,0.3-2.6,0.9-3.8c1.2-2.3-1.9-2.6-3.8-2.3c0,0,0,0,0,0c-0.4-0.6-0.9-1.1-1.3-1.8
		c-0.7-1.4-1.2-3.2-1.2-4.9c-0.1-3.4-6.5-1.9-7.1,0.7c-2.1,8.2-5.4,16.1-9.6,23.4c-4.9-19.8-4.8-40.7,0-60.5
		c1.9-3.8,3.6-7.6,5.3-11.5c3.5-8,6.7-16.2,9.5-24.5c0.5-1.5-1.8-1.9-2.7-1.9c-1.5,0-3.4,0.7-4.2,2c-6.8,11.1-11.7,23.3-14.8,35.8
		c-6.5,13.2-14,25.8-22.4,37.9c-0.5,0.7-1.2,1.4-1.6,2.1c0,0,0,0.1-0.1,0.1c-0.2-0.1-0.3-0.2-0.4-0.2c-0.5-0.3-1-0.7-1.4-1.2
		c-1.9-2.2-3-5-3.6-7.8c-0.5-2.3-4.6-1.2-5.8-0.4c-1.7,1.3-3.5,2.5-5.2,3.8c-0.1-1.8-0.2-3.5-0.3-5.2c-0.1-1.1-2-1.3-2.7-1.3
		c-1.4,0-2.7,0.5-3.8,1.5c-1.5,1.3-2.9,2.7-4.3,4c-0.7-0.1-1.4-0.1-2.2,0c0.5-1,0.9-2.1,1.4-3.1c0.6-1.4-0.3-2.2-1.6-2.5
		c-1.6-0.3-3.5,0.2-4.6,1.4c-6,6.1-13,11.2-20.6,15.1c2.5-5.9,6.9-10.8,11.2-15.4c0.8-0.9,1-2-0.1-2.7c-1.2-0.8-3-0.4-4.2,0.1
		c-8.4,3.2-16.8,6.5-25.1,10c1.6-1.5,3.1-3,4.6-4.6c4.5-4.8,8.4-10.2,10.5-16.4c1-3,1.6-6.4-0.6-9.1c-1.8-2.2-4.6-3.2-7.3-3.8
		c-7.3-1.5-15.2-1.3-22.7-0.7c-7.8,0.6-15.6,2-23.3,3.7c-14.4,3.1-28.6,7.2-42.5,11.8c-13.9,4.6-27.5,9.8-40.9,15.7
		c3.9-2.5,7.8-5,11.8-7.5c18.5-11.9,36.8-24.2,54.7-37c8.7-6.2,17.4-12.6,25.7-19.3c3.9-3.1,7.7-6.4,11-10.1c3.2-3.5,6.5-7.5,8.2-12
		c1.7-4.2,1.1-8.3-2.5-11.2c-3.1-2.5-7.2-3.4-11.1-4c-10.4-1.4-21.2-1.4-31.7-1c-21.5,0.8-42.9,4.8-63.3,11.8
		c-2.6,0.9-5.2,1.8-7.8,2.8c-1.2,0.4-3.3,2.7-1.3,3.6c1.3,0.6,2.6,1.3,4,1.9c1.6,0.8,3.6,0.4,5-0.5c1-0.7,2.1-2.4,0.5-3.2
		c-0.1,0-0.1-0.1-0.2-0.1c17.5-6.1,35.8-9.9,54.3-11.3c10.2-0.8,20.4-0.8,30.6-0.1c5.3,0.4,18.5,0.5,17.2,9.1
		c-0.7,4.3-4.2,8.5-7,11.7c-3,3.4-6.4,6.5-9.9,9.3c-8,6.5-16.4,12.6-24.8,18.7c-17,12.2-34.3,23.9-51.9,35.3
		c-20,12.9-40.2,25.5-60.4,38c-1.2,0.7-1.9,2.3-0.5,3.2c1.5,1,3.7,0.2,5-0.5c24-14.2,49.4-26.1,75.7-35.5c13.1-4.7,26.5-8.8,40-12.3
		c14-3.6,28.3-6.9,42.8-6.8c3.6,0,7.3,0.1,10.8,0.7c2,0.4,4.5,1.1,5.5,3.1c1.4,2.6-0.4,6.5-1.6,8.9c-1.3,2.7-2.9,5.2-4.8,7.6
		c-4,5-8.8,9.3-13.6,13.5c-0.9,0.8-1.8,1.6-2.7,2.4c-13.6,5.7-27.1,11.6-40.5,17.8c-26.4,12.1-52.4,25-77.9,38.6
		c-0.3,0.2-0.6,0.3-0.9,0.5h-10.1v5.5c-1.9,1.1-3.8,2.1-5.8,3.2l2.3-5.7c-4.4-2.5-10.3-3.8-16-3.8c-13.1,0-19.6,6.4-19.6,14.3
		c0,5.5,2.8,8.5,6.5,10.5c-0.6,0.6-0.9,1.5-0.3,2.3c0.8,1.1,2.7,0.9,3.8,0.6c0.9-0.2,1.8-0.4,2.8-0.6c6.2,1.6,12.4,2.1,12.4,5.6
		c0,2.1-2,3.6-7.2,3.6c-5.1,0-10.7-1.8-14.6-4.4l-4.1,9.2c4.2,2.9,11.4,4.9,18.6,4.9c13.1,0,19.6-6.6,19.6-14.3
		c0-4.8-2.1-7.7-5.2-9.6c6.8-1.9,13.6-4.1,20.3-6.4v29.4h12.5v-34c0.2-0.1,0.4-0.2,0.6-0.2h12.9v-5.3c2.8-1.2,5.7-2.5,8.5-3.8
		c24.6-11.4,48-25.4,69.6-41.9c5.4-4.1,10.8-8.4,16-12.9c0,0,0,0,0,0c9.3-3.9,18.7-7.7,28.2-11.4c-3.8,4.7-6.9,9.7-8.3,15.6
		c-0.6,2.6,3.9,1.9,5,1.4c6.8-2.7,13.3-6.3,19.2-10.7c0,0,0,0.1-0.1,0.2c-0.7,1.5,0.6,2.4,2,2.5c1.8,0.1,3.6-0.6,4.6-2
		c0.7-0.9,1.5-1.7,2.4-2.3c0,0,0.1-0.1,0.2-0.2c0.1,0,0.2,0.1,0.3,0.2c1.6,1.1,4.4,0.1,5.7-1.1c0.3-0.2,0.5-0.5,0.8-0.7
		c0.1,1.4,0.2,2.7,0.3,4.1c0.1,0.9,1.5,1.3,2.2,1.3c1.2,0.1,2.6-0.2,3.6-1c2-1.5,4-2.9,6.1-4.4c1.8,4.4,5,8.5,10.2,8.2
		c3.9-0.2,6.7-2.5,8.9-5.6c2.2-3.1,4.3-6.3,6.4-9.5c2.3-3.5,4.5-7.1,6.6-10.8c-0.9,9-0.8,18.1,0.1,27c0.9,8,2.5,15.8,4.9,23.5
		c0.4,1.2,2.1,1.4,3.1,1.3c1.5-0.1,2.9-0.8,3.7-2c4.9-6.8,8.9-14.2,11.8-22c0.6,0.4,1.2,0.7,1.9,0.9c-0.9,3.5-0.1,7.3,2.4,10.2
		c1.6,1.9,5.4,0.5,6.6-1.2c9.3-13.9,17.5-28.5,24.6-43.7c-1.3,14.1-1.1,28.3,0.4,42.5c1.1,9.4,2.8,18.8,5.2,28
		c0.7,2.9,7.8,1,7.1-1.9c-8-31-8.5-63.8-1.6-95.1c6-0.2,12.1-0.2,18.2-0.1c4.7,0.1,9.4,0.3,14.1,0.6c0.9,0.1,2-0.2,2.8-0.6
		c0.6-0.3,1.5-0.7,1.9-1.4C466.1,199.5,466.3,198.9,465.8,198.5z M101.3,322.8c3,0,6.2,0.7,9.5,2.1c-3.5,1.9-6.9,3.9-10.4,5.9
		c-3.6-0.8-6.3-1.8-6.3-4C94.1,324.6,96,322.8,101.3,322.8z M107.5,332.4c-0.2-0.1-0.4-0.1-0.6-0.2c5-2.8,10-5.6,15.1-8.4h12.3v0.2
		C125.5,327.2,116.6,330,107.5,332.4z M172.6,308c-4.2,2.1-8.5,4-12.8,5.9h-19.4c9.5-5,19.1-10,28.8-14.8
		c22.7-11.3,45.7-22.1,68.9-32.2C217.8,282.9,195.8,296.7,172.6,308z M307.8,253c0.2-0.1,0.3-0.2,0.3-0.2
		C308,253,307.9,253,307.8,253z M337.8,255.2C337.7,255.4,337.7,255.2,337.8,255.2L337.8,255.2z"/>
</g>
</svg>
