<?xml version="1.0" encoding="UTF-8"?>
<svg id="Mobile" xmlns="http://www.w3.org/2000/svg" viewBox="0 0 500 500">
  <defs>
    <style>
      .cls-1 {
        letter-spacing: 0em;
      }

      .cls-2 {
        letter-spacing: -.03em;
      }

      .cls-3 {
        letter-spacing: 0em;
      }

      .cls-4 {
        font-family: Montserrat-Black, Montserrat;
        font-size: 63.11px;
        font-weight: 800;
      }
    </style>
  </defs>
  <g>
    <text class="cls-4" transform="translate(79.68 358.14)"><tspan class="cls-3" x="0" y="0">S</tspan><tspan class="cls-2" x="40.83" y="0">T</tspan><tspan x="79.9" y="0">A</tspan><tspan class="cls-1" x="130.77" y="0">R</tspan><tspan x="177.16" y="0">TING</tspan></text>
    <g>
      <g>
        <path d="m232.76,373.15h25.64s0,76.06,0,76.06h-25.64s0-76.06,0-76.06Z"/>
        <path d="m343.5,373.15v76.06s-21.08,0-21.08,0l-28.9-34.55v34.55s-24.99,0-24.99,0v-76.06s21.08,0,21.08,0l28.9,34.55v-34.55s24.99,0,24.99,0Z"/>
        <path d="m372.4,393.03h-22.27s0-19.88,0-19.88h70.19s0,19.88,0,19.88h-22.27s0,56.17,0,56.17h-25.64s0-56.17,0-56.17Z"/>
      </g>
      <path d="m190.08,373.14c-18.65,0-33.77,15.12-33.77,33.77,0,26.62,30.5,67.87,33.77,67.87s33.77-41.25,33.77-67.87c0-18.65-15.12-33.77-33.77-33.77Zm0,50.16c-9.06,0-16.4-7.34-16.4-16.4s7.34-16.4,16.4-16.4c9.06,0,16.41,7.34,16.41,16.4,0,9.06-7.34,16.4-16.41,16.4Z"/>
    </g>
    <rect x="230.5" y="455.99" width="187.45" height="18.79"/>
    <path d="m122.88,373.15h-42.38s0,101.63,0,101.63h22.21s0-24.13,0-24.13h20.18c15.69,0,28.41-12.72,28.41-28.41v-20.66c0-15.69-12.72-28.41-28.41-28.41Zm5.4,44.54c0,5.49-4.46,9.93-9.95,9.93h-14.82s0-31.47,0-31.47h14.82c5.49,0,9.95,4.45,9.95,9.93v11.6Z"/>
  </g>
  <g>
    <path d="m39.95,249.49c4.3.55,8.46-1.26,12.07-3.38,3.87-2.27,7.48-4.91,10.93-7.76,6.85-5.66,12.86-12.25,18.48-19.12,6.16-7.55,11.98-15.38,17.72-23.24,9.94-13.6,19.49-27.49,28.92-41.45,9.58-7.44,19.3-14.69,29.15-21.77,14.76-10.61,29.79-20.85,45-30.81,1.94-1.27,3.88-2.53,5.82-3.79.82-.53,1.62-1.1,2.47-1.59,0,0,0,0,.01,0,.16-.09.33-.17.5-.24.14-.06.88-.37.79-.35.26-.08.71-.2.83-.24.2-.03.72-.12.47-.07-.04,0,.17,0,.19,0,.08.02.28.01.55.27,1.24,1.16.11,3.41-.58,4.68-4.45,8.19-9.51,16.08-14.92,23.66-2.62,3.68-5.35,7.28-8.18,10.8-.94,1.17-.8,2.48.79,2.94,1.59.46,3.87-.1,5-1.34,8.4-9.17,17.26-17.91,26.52-26.2-.9,4.92-1.8,9.84-2.7,14.77-.23,1.28,1.26,1.84,2.26,1.91,1.43.11,3.2-.4,4.2-1.47,9.19-9.85,17.8-20.24,25.78-31.1-1.88,5.88-3.48,11.85-4.78,17.88-.81,3.76-1.51,7.54-2.08,11.35-.39,2.63-.46,5.32-.03,7.95.39,2.39,1.28,5.03,3.11,6.71,2.38,2.2,5.71,2.63,8.8,1.9,4.02-.96,7.03-3.87,10.11-6.42,3.05-2.53,6.13-5.02,9.23-7.48,1.66-1.32,3.32-2.62,4.99-3.92.3-.23,2.76-2.42,3.88-3.09.16.19.43.44.19.04.24.39.71.7.96,1.12.63,1.06.91,2.43.98,3.64.2,3.46-.63,7.13,1.75,10.08,2.03,2.5,5.39,3.12,8.44,2.97,3.88-.18,7.48-1.77,10.77-3.72,2.5-1.48,5.67-4.02,8.63-2.68,1.67.76,3.06,2.11,4.53,3.18,1.52,1.11,3.12,1.89,4.99,2.21,3.61.62,8.6-.42,10.26-4.12,1.52-3.4-5.57-2.93-6.67-.46-.03.06-.05.11-.07.15-.94-.17-2.02-.84-2.95-1.52-2.74-2-5.15-4.05-8.69-4.38-3.75-.36-7.43.98-10.67,2.74-1.61.87-3.14,1.88-4.75,2.75-.84.46-1.95.92-3.17,1.18-.52.11-1.46.17-1.94.08-1.14-.22-2.11-.97-2.67-2.02-1.4-2.66-.43-6.04-.78-8.89-.33-2.7-1.73-5.44-4.36-6.5-3.9-1.58-7.86.48-10.92,2.83-6.24,4.8-12.37,9.73-18.42,14.76-1.14.95-2.27,2.01-3.55,2.78.02-.01-1.18.57-.7.43-.55.15-.51.07-1.08-.17-.3-.13-1.14-.92-1.58-1.55-.58-.84-.93-1.81-1.2-2.79-1.54-5.62.13-11.76,1.25-17.3,1.39-6.94,3.18-13.81,5.34-20.55,2.77-8.63,6.18-17.04,10.18-25.17.07-.12.15-.24.22-.36,3.48-5.79,6.78-11.7,9.91-17.69.78-1.49-.69-2.4-2.03-2.5-1.67-.13-3.71.58-4.64,2.04-3.66,5.76-6.99,11.71-10.01,17.82-8.67,14.42-18.39,28.2-29.13,41.15-1.65,1.99-3.33,3.95-5.02,5.9.76-4.14,1.51-8.28,2.27-12.43.23-1.28-1.26-1.84-2.26-1.91-1.55-.12-3.04.49-4.2,1.47-3.57,3.02-7.08,6.12-10.53,9.27,2.34-3.71,4.76-7.49,6.61-11.45.97-2.07,1.52-4.4.17-6.44-.98-1.48-2.77-2.12-4.46-2.32-4.16-.49-8.24,1.43-11.63,3.63-4.04,2.61-8.06,5.25-12.08,7.9-7.96,5.26-15.86,10.6-23.7,16.03-10.92,7.56-21.71,15.32-32.34,23.28,10.95-16.29,21.89-32.59,32.84-48.89,11.79-17.55,23.57-35.09,35.36-52.64,2.85-4.24,5.7-8.49,8.55-12.73.72-1.08-.22-2.08-1.23-2.37-1.41-.41-3.18,0-4.37.82-27.8,19.16-57.72,35.13-89.11,47.56-8.77,3.47-17.64,6.65-26.61,9.55-1.21.39-3.38,1.38-2.98,3.03.38,1.55,2.98,1.49,4.1,1.13,33.01-10.66,64.76-25.01,94.54-42.81,4.24-2.53,8.43-5.14,12.58-7.81-9.1,13.55-18.2,27.09-27.3,40.64-11.18,16.65-22.37,33.3-33.55,49.95-5.72,8.52-11.43,17.06-17.18,25.56-14.96,11.67-29.56,23.82-43.65,36.54-7.06,6.38-14,12.9-20.78,19.57-3.36,3.31-6.69,6.65-9.98,10.04-3.11,3.2-6.15,6.47-8.71,10.14-3.69,5.31-9.77,18.86.91,20.23Zm290.61-117.54s-.09-.01-.16-.02c.12.01.37.04.16.02Zm-.75.25s-.03.02,0,0h0Zm-44.04-12.92s-.03-.01-.05-.01c.02,0,.03,0,.05.01Zm-75.22-22.72c.29-.17.08-.04,0,0h0ZM41.05,241.06c.77-8.14,6.89-14.57,12.3-20.14,6.38-6.58,12.91-13.01,19.58-19.3,12.86-12.15,26.21-23.8,39.93-34.97-2.23,3.25-4.47,6.5-6.73,9.73-10.66,15.29-21.42,30.72-33.53,44.9-5.46,6.39-11.35,12.51-18.11,17.55-1.65,1.23-3.35,2.4-5.09,3.5-.83.52-1.72,1.08-2.54,1.53-.22.12-.56.29-.84.42-.13.06-.82.34-.82.36-.34.11-.68.2-1.03.29-.17.05-.24.07-.27.08,0,0-.06,0-.28,0-.35.03-.76.04-1.07-.1-1.37-.64-1.65-2.38-1.51-3.84Z"/>
    <path d="m137.08,194.72c9.29-11.41,18.9-22.55,28.83-33.41,1.23-1.34,2.46-2.68,3.7-4.01,1.07-1.16-.94-1.36-1.71-1.3-1.5.12-3.64.56-4.73,1.73-10.04,10.83-19.77,21.94-29.17,33.33-9.43,11.42-18.52,23.12-27.29,35.07-8.73,11.91-17.13,24.06-25.16,36.45-8.07,12.43-15.77,25.1-23.11,37.98-7.31,12.83-14.25,25.87-20.8,39.1-.81,1.63-1.61,3.26-2.4,4.9-.59,1.21,2.44.89,2.87.81,1.24-.23,3.5-.7,4.13-2,6.46-13.28,13.31-26.37,20.52-39.25,7.19-12.83,14.75-25.46,22.66-37.86,7.91-12.4,16.18-24.58,24.79-36.5,8.61-11.93,17.58-23.61,26.87-35.03Z"/>
    <path d="m465.79,198.51c-.51-.47-1.24-.54-1.9-.58-8.42-.54-16.86-.76-25.3-.67-2.85.03-5.7.1-8.55.21.27-.8.55-1.59.82-2.39,2.6-7.71,4.89-15.52,6.88-23.41.75-2.98-6.09-1.98-6.9.12-3.27,8.5-5.97,17.2-8.09,26.02-3.36.19-6.72.43-10.08.72-4.72.41-9.43.91-14.13,1.51-.91.12-1.9.43-2.68.9-.44.27-1.27.86-1.35,1.45-.23,1.54,2.07,1.55,3.03,1.43,4.16-.53,8.32-.99,12.5-1.37,2.09-.19,4.18-.36,6.27-.51.97-.07,1.95-.14,2.92-.2.08,0,.15,0,.23-.01.26-.02.52-.03.77-.05.49-.03.97-.05,1.46-.08-6.11,17.01-13.67,33.49-22.61,49.22-2.57,4.53-5.26,8.99-8.05,13.38-.02-1.29.26-2.59.86-3.8,1.17-2.33-1.86-2.64-3.78-2.29-.01-.01-.02-.02-.03-.04-.4-.61-.94-1.09-1.29-1.76-.74-1.44-1.21-3.25-1.25-4.87-.1-3.44-6.46-1.86-7.12.72-2.1,8.23-5.35,16.09-9.6,23.4-4.87-19.8-4.82-40.72-.02-60.53,1.86-3.78,3.63-7.6,5.33-11.45,3.52-8.03,6.68-16.21,9.5-24.51.49-1.46-1.82-1.93-2.71-1.91-1.54.03-3.35.66-4.19,2.04-6.76,11.13-11.72,23.26-14.83,35.84-6.49,13.17-13.98,25.85-22.37,37.89-.48.69-1.18,1.36-1.6,2.06-.02.04-.05.07-.07.1-.15-.08-.33-.18-.38-.21-.53-.3-.95-.73-1.36-1.19-1.92-2.17-2.96-5-3.56-7.79-.49-2.29-4.63-1.23-5.81-.38-1.74,1.26-3.49,2.52-5.23,3.78-.11-1.75-.23-3.49-.34-5.24-.07-1.1-1.97-1.34-2.69-1.32-1.38.03-2.73.52-3.75,1.47-1.45,1.35-2.9,2.7-4.34,4.04-.72-.1-1.44-.08-2.16.04.45-1.05.9-2.1,1.36-3.15.58-1.35-.29-2.22-1.63-2.45-1.57-.27-3.47.25-4.6,1.41-6.03,6.14-12.96,11.21-20.59,15.08,2.5-5.85,6.91-10.75,11.17-15.43.79-.87.95-1.98-.12-2.68-1.23-.8-3.01-.37-4.25.11-8.39,3.23-16.75,6.55-25.08,9.95,1.57-1.48,3.11-3,4.59-4.57,4.51-4.79,8.39-10.16,10.53-16.42,1.03-3,1.56-6.41-.59-9.06-1.75-2.16-4.65-3.22-7.3-3.75-7.35-1.48-15.23-1.26-22.67-.67-7.83.63-15.59,2.03-23.26,3.71-14.36,3.14-28.56,7.15-42.51,11.76-13.89,4.59-27.55,9.83-40.93,15.71,3.92-2.49,7.84-4.99,11.75-7.5,18.52-11.92,36.84-24.16,54.72-37.01,8.69-6.25,17.4-12.56,25.74-19.27,3.88-3.12,7.67-6.38,11.04-10.06,3.2-3.51,6.46-7.54,8.25-11.99,1.67-4.15,1.09-8.32-2.47-11.18-3.09-2.49-7.2-3.43-11.06-3.95-10.44-1.4-21.23-1.39-31.74-.97-21.49.85-42.93,4.82-63.28,11.79-2.62.89-5.22,1.83-7.8,2.81-1.17.44-3.32,2.66-1.29,3.63,1.32.64,2.64,1.27,3.96,1.91,1.58.76,3.62.43,5.04-.55.98-.67,2.1-2.43.5-3.2-.07-.03-.14-.07-.21-.1,17.52-6.12,35.83-9.9,54.34-11.31,10.17-.77,20.38-.8,30.56-.1,5.3.37,18.54.5,17.2,9.06-.67,4.29-4.25,8.53-7.03,11.69-2.99,3.4-6.36,6.47-9.87,9.33-8.01,6.54-16.44,12.62-24.82,18.67-16.97,12.25-34.34,23.94-51.91,35.32-19.96,12.93-40.18,25.45-60.39,37.98-1.17.72-1.88,2.31-.5,3.2,1.48.96,3.68.25,5.04-.55,24.05-14.17,49.44-26.06,75.7-35.52,13.11-4.72,26.46-8.79,39.96-12.26,13.96-3.58,28.33-6.95,42.83-6.84,3.57.03,7.28.11,10.8.74,2.05.37,4.49,1.1,5.54,3.07,1.41,2.63-.43,6.5-1.58,8.93-1.28,2.69-2.9,5.24-4.76,7.57-4,5-8.84,9.29-13.64,13.5-.91.8-1.82,1.58-2.73,2.37-13.6,5.71-27.11,11.63-40.53,17.77-26.37,12.07-52.36,24.95-77.93,38.63-14.43,7.72-28.72,15.69-42.88,23.89-.93.54-1.74,1.8-.99,2.79.82,1.09,2.7.86,3.82.62,26.52-5.81,52.42-14.55,77.06-25.96,24.61-11.4,48.04-25.44,69.62-41.86,5.44-4.14,10.76-8.43,15.97-12.86,0,0,.01-.01.02-.02,9.34-3.91,18.73-7.72,28.15-11.43-3.75,4.66-6.94,9.71-8.31,15.64-.6,2.57,3.93,1.85,5.04,1.4,6.84-2.74,13.3-6.34,19.23-10.69-.02.05-.05.11-.07.16-.66,1.52.6,2.4,2.03,2.52,1.79.14,3.57-.63,4.64-2.05.66-.87,1.46-1.71,2.35-2.34.05-.04.15-.11.25-.19.08.05.18.13.32.22,1.6,1.15,4.43.09,5.67-1.07.26-.24.52-.49.78-.73.09,1.36.18,2.73.27,4.09.06.94,1.55,1.28,2.24,1.33,1.2.09,2.59-.25,3.57-.96,2.02-1.46,4.05-2.92,6.07-4.39,1.75,4.43,5.02,8.49,10.15,8.19,3.92-.23,6.73-2.55,8.92-5.62,2.2-3.1,4.3-6.27,6.36-9.46,2.28-3.54,4.49-7.14,6.61-10.77-.88,8.98-.84,18.05.13,27.05.86,7.95,2.5,15.81,4.86,23.45.38,1.23,2.07,1.42,3.14,1.32,1.47-.14,2.87-.83,3.74-2.03,4.9-6.8,8.85-14.22,11.79-22.04.6.42,1.25.72,1.93.91-.86,3.54-.08,7.31,2.38,10.2,1.62,1.9,5.43.51,6.6-1.23,9.33-13.9,17.54-28.52,24.57-43.69-1.29,14.1-1.15,28.33.44,42.46,1.07,9.44,2.8,18.79,5.17,27.98.73,2.85,7.82.98,7.08-1.9-7.99-31.04-8.5-63.78-1.64-95.08,6.05-.19,12.1-.23,18.16-.09,4.71.1,9.41.31,14.11.61.88.06,1.97-.22,2.77-.56.61-.26,1.54-.74,1.91-1.35.26-.44.45-.99,0-1.4ZM105.8,332.9c20.84-11.8,41.97-23.06,63.39-33.77,22.68-11.34,45.67-22.06,68.93-32.15-20.31,15.94-42.3,29.73-65.51,41.05-21.4,10.44-43.79,18.79-66.81,24.87Zm201.97-79.89c.18-.13.34-.24.31-.15-.06.14-.19.17-.31.15Zm30.04,2.16c-.16.2-.15.03,0,0h0Z"/>
  </g>
</svg>