<?xml version="1.0" encoding="UTF-8"?>
<svg id="Mobile" xmlns="http://www.w3.org/2000/svg" viewBox="0 0 500 500">
  <defs>
    <style>
      .cls-1 {
        fill: #061c34;
      }
    </style>
  </defs>
  <path class="cls-1" d="m323.48,38.13h-146.95c-76.43,0-138.4,61.96-138.4,138.4v146.94c0,76.43,61.96,138.4,138.4,138.4h146.95c76.43,0,138.39-61.96,138.39-138.4v-146.94c0-76.43-61.96-138.4-138.39-138.4Zm58.36,158.47s3.81,80.67-47.24,130.42c-113.71,110.84-225.84,26.82-225.84,26.82,52.34,7.75,91.43-24.24,91.43-24.24-51.05-8.08-57.84-44.59-57.84-44.59,16.48,2.59,26.82-1.62,26.82-1.62-50.09-12.28-48.67-61.6-48.67-61.6,11.43,8.19,28.31,7.97,28.31,7.97-48.78-39.42-19.71-83.04-19.71-83.04,47.18,62.68,129.15,64.83,129.15,64.83-6.19-34.05,9.88-66.98,47.26-75.49,37.37-8.51,59.45,17.88,59.45,17.88,10.77.11,39.85-14.54,39.85-14.54-8.72,26.07-27.67,34.25-27.67,34.25,11.74.43,35.75-9.69,35.75-9.69-10.44,17.13-31.06,32.64-31.06,32.64Z"/>
</svg>