<?xml version="1.0" encoding="UTF-8"?>
<svg id="Mobile" xmlns="http://www.w3.org/2000/svg" viewBox="0 0 500 500">
  <defs>
    <style>
      .cls-1 {
        fill: #061c34;
      }
    </style>
  </defs>
  <path class="cls-1" d="m323.47,38.14h-146.94c-76.43,0-138.4,61.96-138.4,138.4v146.94c0,76.43,61.97,138.39,138.4,138.39h146.94c76.44,0,138.4-61.96,138.4-138.39v-146.94c0-76.44-61.96-138.4-138.4-138.4Zm33.6,107.64c-8.83,5.34-17.87,9.81-27.4,13.73-9.44-19.61-21.58-37.15-36.84-52.53,24.72,7.36,46.01,20.32,64.24,38.8Zm-100.93,98.06v-55.28c22.81-1.09,44.95-5.19,66.56-12.59,8.69,21.84,13.22,44.4,13.94,67.87h-80.5Zm80.51,12.31c-.69,22.24-4.79,43.68-12.65,64.55-22.02-7.69-44.59-11.92-67.84-13.05v-51.5h80.49ZM207.1,106.99c-16.13,16.32-28.78,34.99-38.37,55.92-10.23-3.66-19.93-7.98-29.51-13.22,18.82-20.48,41.32-34.76,67.88-42.7Zm-30.98,71.96c22.14,6.54,44.66,9.72,67.73,9.87v55.03h-80.52c.7-22.36,4.83-43.93,12.79-64.9Zm-65.75,17.75c5.05-13.22,11.85-25.47,20.46-36.84,10.58,5.91,21.46,10.86,32.91,15.02-8.36,22.27-12.77,45.22-13.48,68.96h-49.53c.66-16.34,3.87-32,9.64-47.14Zm-9.67,59.41h49.56c.68,22.5,4.67,44.34,12.26,65.64-11.65,4.32-22.81,9.48-33.69,15.73-17.39-24.45-26.75-51.45-28.13-81.37Zm68.28,119.43c-11.94-7.68-22.55-16.92-31.95-27.78,9.73-5.49,19.73-10.06,30.26-13.93,9.74,22.24,22.85,42.02,40,59.12-4.88-.1-26.91-10.08-38.31-17.41Zm74.86,23.78c-3.27-.25-6.4-.45-9.51-.77-.56-.05-1.1-.53-1.58-.9-20.68-15.54-36.52-35.12-48.34-58.04-1.41-2.74-2.69-5.56-4.03-8.34-.22-.47-.4-.95-.64-1.54,20.97-6.2,42.26-9.17,64.1-9.28v78.87Zm.02-91.95c-23.44.16-46.41,3.43-69,10.26-7.15-19.92-10.87-40.36-11.53-61.51h80.53v51.25Zm.03-131.61c-21.34-.07-42.12-2.93-62.71-8.83.75-1.55,1.42-2.99,2.13-4.41,11.91-23.81,28.07-44.13,49.44-60.16.78-.59,1.86-.94,2.84-1.05,2.72-.31,5.47-.43,8.3-.64v75.09Zm12.22-75.03c1.9.1,3.78.31,5.65.28,3.06-.05,5.45,1.16,7.84,3.04,19.59,15.46,34.75,34.48,46.13,56.61.54,1.05,1.06,2.12,1.71,3.4-19.93,6.72-40.29,10.41-61.33,11.44v-74.77Zm11.28,296.77c-.85.64-2.02,1.02-3.08,1.15-2.55.31-5.12.4-7.68.57-.13,0-.27-.07-.49-.13v-78.36c21.48,1.03,42.35,4.91,62.82,11.95-3.49,7.56-7.36,14.65-11.71,21.47-10.73,16.8-23.88,31.38-39.86,43.35Zm25.45-4.49c16.09-16.25,28.72-34.85,38.3-55.69,9.85,4.16,19.14,8.88,28.18,14.52-18.6,19.7-40.65,33.44-66.48,41.17Zm75.04-51.17c-10.15-6.39-20.65-11.81-31.74-16.49,8.43-22.32,12.85-45.36,13.59-69.21h49.57c-1.53,31.87-11.98,60.35-31.42,85.7Zm-18.14-98.01c-.79-24.92-5.58-49.07-14.71-72.03,10.38-5.27,20.66-10.49,31.15-15.82,20.39,25.54,31.5,54.82,33.12,87.85h-49.56Z"/>
</svg>